<?xml version="1.0" standalone="no"?><!DOCTYPE svg PUBLIC "-//W3C//DTD SVG 1.1//EN" "http://www.w3.org/Graphics/SVG/1.1/DTD/svg11.dtd"><svg t="1562844849902" class="icon" viewBox="0 0 1024 1024" version="1.1" xmlns="http://www.w3.org/2000/svg" p-id="10030" xmlns:xlink="http://www.w3.org/1999/xlink" width="60" height="60"><defs><style type="text/css"></style></defs><path d="M876.4664713541666 302.9680989583333H776.4029947916665V202.90462239583334c0-11.865234374999998-9.8876953125-21.7529296875-21.7529296875-21.7529296875s-21.7529296875 9.8876953125-21.7529296875 21.7529296875v100.0634765625H632.8336588541666c-11.865234374999998 0-21.7529296875 9.8876953125-21.7529296875 21.7529296875s9.8876953125 21.7529296875 21.7529296875 21.7529296875h100.0634765625v100.0634765625c0 11.865234374999998 9.8876953125 21.7529296875 21.7529296875 21.7529296875s21.7529296875-9.8876953125 21.7529296875-21.7529296875V346.4739583333333H876.4664713541666c11.865234374999998 0 21.7529296875-9.8876953125 21.7529296875-21.7529296875 0-12.2607421875-9.8876953125-21.7529296875-21.7529296875-21.7529296875zM146.75455729166666 386.0247395833333c11.07421875 0 19.775390625-8.701171874999998 19.775390625-19.775390625h0.7910156249999999v-21.7529296875h36.38671875c10.678710937499998 0 19.775390625-8.701171874999998 19.775390625-19.775390625s-9.0966796875-19.775390625-19.775390625-19.775390625l-56.953125-0.39550781249999994c-11.07421875 0-19.775390625 8.701171874999998-19.775390625 19.775390625v42.71484374999999c0 9.8876953125 8.701171874999998 18.984374999999996 19.775390625 18.984374999999996z m135.26367187500003-41.92382812499999h98.876953125c11.07421875 0 19.775390625-8.701171874999998 19.775390625-19.775390625s-8.701171874999998-19.775390625-19.775390625-19.775390625h-98.876953125c-11.07421875 0-19.775390625 9.0966796875-19.775390625 19.775390625 0 11.07421875 9.0966796875 19.775390625 19.775390625 19.775390625z m177.1875 0h98.876953125c11.07421875 0 19.775390625-8.701171874999998 19.775390625-19.775390625s-8.701171874999998-19.775390625-19.775390625-19.775390625h-98.876953125c-11.07421875 0-19.775390625 9.0966796875-19.775390625 19.775390625 0.7910156249999999 11.07421875 8.701171874999998 19.775390625 19.775390625 19.775390625zM774.8209635416665 560.8391927083335c0-11.07421875-8.701171874999998-19.775390625-19.775390625-19.775390625s-19.775390625 8.701171874999998-19.775390625 19.775390625v98.876953125c0 11.07421875 8.701171874999998 19.775390625 19.775390625 19.775390625s19.775390625-8.701171874999998 19.775390625-19.775390625v-98.876953125z m-19.775390625 157.41210937500003c-11.07421875 0-19.775390625 9.0966796875-19.775390625 19.775390625v64.072265625h-79.1015625v1.1865234374999998c-11.07421875 0-19.775390625 8.701171874999998-19.775390625 19.775390625s8.701171874999998 19.775390625 19.775390625 19.775390625h98.876953125c11.07421875 0 19.775390625-8.701171874999998 19.775390625-19.775390625V738.8177083333334c0-11.865234374999998-9.0966796875-20.56640625-19.775390625-20.56640625zM581.0221354166666 802.0989583333333L166.52994791666666 801.3079427083333V423.2024739583333h-0.7910156249999999c0-11.07421875-8.701171874999998-19.775390625-19.775390625-19.775390625s-19.775390625 8.701171874999998-19.775390625 19.775390625V821.8743489583334c0 11.07421875 8.701171874999998 19.775390625 19.775390625 19.775390625H579.8356119791666c11.07421875 0 19.775390625-9.0966796875 19.775390625-19.775390625 0-11.07421875-9.0966796875-19.775390625-18.5888671875-19.775390625z" p-id="10031" fill="#1296db"></path></svg>