<?xml version="1.0" standalone="no"?><!DOCTYPE svg PUBLIC "-//W3C//DTD SVG 1.1//EN" "http://www.w3.org/Graphics/SVG/1.1/DTD/svg11.dtd"><svg t="1562993544134" class="icon" viewBox="0 0 1024 1024" version="1.1" xmlns="http://www.w3.org/2000/svg" p-id="1125" width="60" height="60" xmlns:xlink="http://www.w3.org/1999/xlink"><defs><style type="text/css"></style></defs><path d="M352.65 354l121.34 121.34c11.716 11.716 11.716 30.71 0 42.427-11.716 11.715-30.71 11.715-42.427 0L256.201 342.404c-12.497-12.497-12.497-32.758 0-45.255l175.362-175.362c11.716-11.716 30.711-11.716 42.427 0 11.716 11.716 11.716 30.71 0 42.426L344.203 294H687c139.176 0 252 112.824 252 252S826.176 798 687 798H115c-16.569 0-30-13.431-30-30 0-16.569 13.431-30 30-30h572c106.039 0 192-85.961 192-192s-85.961-192-192-192H352.65z" p-id="1126" fill="#1296db"></path></svg>